<?xml version="1.0" encoding="UTF-8"?>
<svg xmlns="http://www.w3.org/2000/svg" xmlns:xlink="http://www.w3.org/1999/xlink" width="35pt" height="35pt" viewBox="0 0 35 35" version="1.1">
<g id="surface1">
<path style=" stroke:none;fill-rule:nonzero;fill:rgb(33.333333%,79.607843%,58.431373%);fill-opacity:1;" d="M 13.980469 31.351562 L 13.980469 34.894531 L 13.121094 34.203125 C 12.988281 34.09375 9.839844 31.535156 6.644531 27.867188 C 2.234375 22.808594 0 18.265625 0 14.367188 L 0 13.980469 C 0 6.269531 6.269531 0 13.980469 0 C 21.6875 0 27.960938 6.269531 27.960938 13.980469 L 27.960938 14.367188 C 27.960938 14.691406 27.941406 15.027344 27.910156 15.363281 L 25.175781 12.867188 C 24.617188 7.183594 19.808594 2.726562 13.980469 2.726562 C 7.773438 2.726562 2.726562 7.773438 2.726562 13.980469 L 2.726562 14.367188 C 2.726562 20.953125 11.214844 28.929688 13.980469 31.351562 Z M 22.367188 29.390625 L 26.457031 29.390625 L 26.457031 25.300781 L 22.367188 25.300781 Z M 13.980469 8.183594 C 17.175781 8.183594 19.777344 10.785156 19.777344 13.980469 C 19.777344 17.175781 17.175781 19.777344 13.980469 19.777344 C 10.785156 19.777344 8.183594 17.175781 8.183594 13.980469 C 8.183594 10.785156 10.785156 8.183594 13.980469 8.183594 Z M 13.980469 10.910156 C 12.289062 10.910156 10.910156 12.289062 10.910156 13.980469 C 10.910156 15.671875 12.289062 17.046875 13.980469 17.046875 C 15.671875 17.046875 17.046875 15.671875 17.046875 13.980469 C 17.046875 12.289062 15.671875 10.910156 13.980469 10.910156 Z M 33.160156 27.539062 L 32.394531 26.835938 L 32.394531 31.214844 C 32.394531 33.253906 30.734375 34.914062 28.695312 34.914062 L 20.0625 34.914062 C 18.023438 34.914062 16.363281 33.253906 16.363281 31.214844 L 16.363281 26.835938 L 15.597656 27.539062 L 13.757812 25.523438 L 24.378906 15.832031 L 35 25.523438 Z M 29.667969 24.347656 L 24.378906 19.523438 L 19.089844 24.347656 L 19.089844 31.214844 C 19.089844 31.75 19.527344 32.1875 20.0625 32.1875 L 28.695312 32.1875 C 29.230469 32.1875 29.667969 31.75 29.667969 31.214844 Z M 29.667969 24.347656 "/>
</g>
</svg>
