<?xml version="1.0" encoding="UTF-8"?>
<svg xmlns="http://www.w3.org/2000/svg" xmlns:xlink="http://www.w3.org/1999/xlink" width="35pt" height="35pt" viewBox="0 0 35 35" version="1.1">
<g id="surface1">
<path style=" stroke:none;fill-rule:nonzero;fill:rgb(88.235294%,88.235294%,88.235294%);fill-opacity:1;" d="M 17.5 0 C 12.410156 0 8.273438 4.140625 8.273438 9.226562 C 8.273438 14.316406 12.410156 18.457031 17.5 18.457031 C 22.589844 18.457031 26.726562 14.316406 26.726562 9.226562 C 26.726562 4.140625 22.589844 0 17.5 0 Z M 17.5 16.40625 C 13.542969 16.40625 10.320312 13.1875 10.320312 9.226562 C 10.320312 5.269531 13.542969 2.050781 17.5 2.050781 C 21.457031 2.050781 24.679688 5.269531 24.679688 9.226562 C 24.679688 13.1875 21.457031 16.40625 17.5 16.40625 Z M 17.5 16.40625 "/>
<path style=" stroke:none;fill-rule:nonzero;fill:rgb(88.235294%,88.235294%,88.235294%);fill-opacity:1;" d="M 20.359375 20.578125 L 14.640625 20.578125 C 9.910156 20.578125 5.242188 22.761719 2.117188 27.445312 L 2.117188 35 L 32.882812 35 L 32.882812 27.445312 C 29.761719 22.765625 25.097656 20.578125 20.359375 20.578125 Z M 30.832031 32.949219 L 4.171875 32.949219 L 4.171875 28.070312 C 6.566406 24.65625 10.457031 22.625 14.640625 22.625 L 20.359375 22.625 C 24.542969 22.625 28.433594 24.65625 30.832031 28.070312 Z M 30.832031 32.949219 "/>
</g>
</svg>
