<?xml version="1.0" encoding="UTF-8"?>
<svg xmlns="http://www.w3.org/2000/svg" xmlns:xlink="http://www.w3.org/1999/xlink" width="50pt" height="50pt" viewBox="0 0 50 50" version="1.1">
<g id="surface1">
<path style=" stroke:none;fill-rule:nonzero;fill:rgb(39.215686%,70.980392%,96.470588%);fill-opacity:1;" d="M 45.65625 41.882812 C 48.46875 38.867188 49.996094 35.136719 49.996094 31.25 C 49.996094 26.386719 47.597656 21.984375 43.75 18.859375 C 43.664062 30 33.183594 39.0625 20.3125 39.0625 L 11.601562 39.0625 C 14.96875 44.617188 21.816406 48.4375 29.6875 48.4375 L 48.4375 48.4375 C 49.066406 48.4375 49.632812 48.054688 49.878906 47.46875 C 50.121094 46.882812 49.984375 46.210938 49.535156 45.773438 Z M 45.65625 41.882812 "/>
<path style=" stroke:none;fill-rule:nonzero;fill:rgb(12.941176%,58.823529%,95.294118%);fill-opacity:1;" d="M 20.3125 1.5625 C 9.109375 1.5625 0.00390625 9.265625 0.00390625 18.75 C 0.00390625 22.636719 1.53125 26.359375 4.34375 29.382812 L 0.464844 33.273438 C 0.015625 33.71875 -0.121094 34.394531 0.121094 34.96875 C 0.367188 35.554688 0.933594 35.9375 1.5625 35.9375 L 20.3125 35.9375 C 31.515625 35.9375 40.625 28.234375 40.625 18.75 C 40.625 9.265625 31.515625 1.5625 20.3125 1.5625 Z M 20.3125 1.5625 "/>
<path style=" stroke:none;fill-rule:nonzero;fill:rgb(98.039216%,98.039216%,98.039216%);fill-opacity:1;" d="M 29.6875 14.0625 L 10.9375 14.0625 C 10.078125 14.0625 9.375 14.765625 9.375 15.625 C 9.375 16.484375 10.078125 17.1875 10.9375 17.1875 L 29.6875 17.1875 C 30.546875 17.1875 31.25 16.484375 31.25 15.625 C 31.25 14.765625 30.546875 14.0625 29.6875 14.0625 Z M 29.6875 14.0625 "/>
<path style=" stroke:none;fill-rule:nonzero;fill:rgb(98.039216%,98.039216%,98.039216%);fill-opacity:1;" d="M 23.4375 20.3125 L 10.9375 20.3125 C 10.078125 20.3125 9.375 21.015625 9.375 21.875 C 9.375 22.734375 10.078125 23.4375 10.9375 23.4375 L 23.4375 23.4375 C 24.296875 23.4375 25 22.734375 25 21.875 C 25 21.015625 24.296875 20.3125 23.4375 20.3125 Z M 23.4375 20.3125 "/>
</g>
</svg>
