<?xml version="1.0" encoding="UTF-8"?>
<svg xmlns="http://www.w3.org/2000/svg" xmlns:xlink="http://www.w3.org/1999/xlink" width="50pt" height="50pt" viewBox="0 0 50 50" version="1.1">
<g id="surface1">
<path style=" stroke:none;fill-rule:nonzero;fill:rgb(16.470588%,31.764706%,100%);fill-opacity:1;" d="M 42.964844 47.515625 L 49.257812 49.257812 L 47.519531 42.964844 C 49.085938 40.550781 50 37.667969 50 34.570312 C 50 26.046875 43.09375 19.140625 34.570312 19.140625 C 26.046875 19.140625 19.140625 26.046875 19.140625 34.570312 C 19.140625 43.09375 26.046875 50 34.570312 50 C 37.667969 50 40.550781 49.085938 42.964844 47.515625 Z M 42.964844 47.515625 "/>
<path style=" stroke:none;fill-rule:nonzero;fill:rgb(6.27451%,74.509804%,100%);fill-opacity:1;" d="M 19.09375 0 L 11.28125 19.09375 L 19.09375 38.183594 C 29.621094 38.183594 38.183594 29.621094 38.183594 19.09375 C 38.183594 8.5625 29.621094 0 19.09375 0 Z M 19.09375 0 "/>
<path style=" stroke:none;fill-rule:nonzero;fill:rgb(35.294118%,92.54902%,100%);fill-opacity:1;" d="M 0 19.09375 C 0 22.523438 0.914062 25.863281 2.648438 28.796875 L 0.0703125 38.113281 L 9.386719 35.535156 C 12.320312 37.269531 15.660156 38.183594 19.09375 38.183594 L 19.09375 0 C 8.5625 0 0 8.5625 0 19.09375 Z M 0 19.09375 "/>
<path style=" stroke:none;fill-rule:nonzero;fill:rgb(0%,0%,0%);fill-opacity:1;" d="M 17.625 26.464844 L 20.554688 26.464844 L 20.554688 29.394531 L 17.625 29.394531 Z M 17.625 26.464844 "/>
<path style=" stroke:none;fill-rule:nonzero;fill:rgb(16.078431%,17.254902%,19.607843%);fill-opacity:1;" d="M 17.625 19.960938 L 17.625 23.535156 L 19.09375 23.535156 L 20.070312 21.078125 L 19.09375 18.621094 Z M 17.625 19.960938 "/>
<path style=" stroke:none;fill-rule:nonzero;fill:rgb(16.078431%,17.254902%,19.607843%);fill-opacity:1;" d="M 13.234375 14.648438 L 16.164062 14.648438 C 16.164062 13.03125 17.476562 11.71875 19.09375 11.71875 L 20.070312 10.253906 L 19.09375 8.789062 C 15.859375 8.789062 13.234375 11.417969 13.234375 14.648438 Z M 13.234375 14.648438 "/>
<path style=" stroke:none;fill-rule:nonzero;fill:rgb(0%,0%,0%);fill-opacity:1;" d="M 19.09375 8.789062 L 19.09375 11.71875 C 20.707031 11.71875 22.023438 13.03125 22.023438 14.648438 C 22.023438 15.480469 21.683594 16.25 21.066406 16.8125 L 19.09375 18.621094 L 19.09375 23.535156 L 20.554688 23.535156 L 20.554688 21.25 L 23.046875 18.972656 C 24.257812 17.863281 24.953125 16.289062 24.953125 14.648438 C 24.953125 11.417969 22.324219 8.789062 19.09375 8.789062 Z M 19.09375 8.789062 "/>
</g>
</svg>
