<?xml version="1.0" encoding="UTF-8"?>
<svg xmlns="http://www.w3.org/2000/svg" xmlns:xlink="http://www.w3.org/1999/xlink" width="35pt" height="35pt" viewBox="0 0 35 35" version="1.1">
<g id="surface1">
<path style=" stroke:none;fill-rule:nonzero;fill:rgb(88.235294%,88.235294%,88.235294%);fill-opacity:1;" d="M 34.125 15.222656 C 34.125 15.222656 34.125 15.222656 34.121094 15.21875 L 19.84375 0.945312 C 19.238281 0.335938 18.425781 0 17.566406 0 C 16.707031 0 15.898438 0.335938 15.289062 0.945312 L 1.019531 15.214844 C 1.011719 15.21875 1.007812 15.222656 1.003906 15.226562 C -0.246094 16.484375 -0.242188 18.523438 1.011719 19.777344 C 1.582031 20.351562 2.339844 20.683594 3.148438 20.71875 C 3.179688 20.722656 3.214844 20.722656 3.246094 20.722656 L 3.816406 20.722656 L 3.816406 31.230469 C 3.816406 33.308594 5.507812 35 7.585938 35 L 13.171875 35 C 13.738281 35 14.199219 34.539062 14.199219 33.976562 L 14.199219 25.738281 C 14.199219 24.789062 14.96875 24.015625 15.917969 24.015625 L 19.214844 24.015625 C 20.164062 24.015625 20.933594 24.789062 20.933594 25.738281 L 20.933594 33.976562 C 20.933594 34.539062 21.394531 35 21.960938 35 L 27.546875 35 C 29.625 35 31.316406 33.308594 31.316406 31.230469 L 31.316406 20.722656 L 31.84375 20.722656 C 32.703125 20.722656 33.515625 20.386719 34.125 19.777344 C 35.378906 18.523438 35.378906 16.480469 34.125 15.222656 Z M 32.671875 18.328125 C 32.453125 18.550781 32.15625 18.671875 31.84375 18.671875 L 30.292969 18.671875 C 29.726562 18.671875 29.265625 19.128906 29.265625 19.695312 L 29.265625 31.230469 C 29.265625 32.175781 28.496094 32.949219 27.546875 32.949219 L 22.984375 32.949219 L 22.984375 25.738281 C 22.984375 23.65625 21.292969 21.964844 19.214844 21.964844 L 15.917969 21.964844 C 13.839844 21.964844 12.148438 23.65625 12.148438 25.738281 L 12.148438 32.949219 L 7.585938 32.949219 C 6.640625 32.949219 5.867188 32.175781 5.867188 31.230469 L 5.867188 19.695312 C 5.867188 19.128906 5.40625 18.671875 4.839844 18.671875 L 3.316406 18.671875 C 3.300781 18.671875 3.285156 18.667969 3.265625 18.667969 C 2.960938 18.664062 2.675781 18.542969 2.460938 18.328125 C 2.003906 17.871094 2.003906 17.128906 2.460938 16.671875 L 16.738281 2.394531 C 16.960938 2.171875 17.253906 2.050781 17.566406 2.050781 C 17.878906 2.050781 18.171875 2.171875 18.394531 2.394531 L 32.667969 16.667969 C 32.671875 16.667969 32.671875 16.671875 32.675781 16.671875 C 33.128906 17.132812 33.128906 17.871094 32.671875 18.328125 Z M 32.671875 18.328125 "/>
</g>
</svg>
