<?xml version="1.0" encoding="UTF-8"?>
<svg xmlns="http://www.w3.org/2000/svg" xmlns:xlink="http://www.w3.org/1999/xlink" width="35pt" height="35pt" viewBox="0 0 35 35" version="1.1">
<g id="surface1">
<path style=" stroke:none;fill-rule:nonzero;fill:rgb(100%,0%,0%);fill-opacity:1;" d="M 19.6875 30.625 L 13.855469 30.625 C 13.453125 30.625 13.125 30.296875 13.125 29.894531 C 13.125 29.492188 13.453125 29.167969 13.855469 29.167969 L 19.6875 29.167969 C 20.894531 29.167969 21.875 28.183594 21.875 26.980469 L 21.875 19.6875 C 21.875 19.285156 22.203125 18.957031 22.605469 18.957031 C 23.007812 18.957031 23.332031 19.285156 23.332031 19.6875 L 23.332031 26.980469 C 23.332031 28.988281 21.699219 30.625 19.6875 30.625 Z M 19.6875 30.625 "/>
<path style=" stroke:none;fill-rule:nonzero;fill:rgb(100%,0%,0%);fill-opacity:1;" d="M 34.269531 16.042969 L 19.6875 16.042969 C 19.285156 16.042969 18.957031 15.714844 18.957031 15.3125 C 18.957031 14.910156 19.285156 14.582031 19.6875 14.582031 L 34.269531 14.582031 C 34.671875 14.582031 35 14.910156 35 15.3125 C 35 15.714844 34.671875 16.042969 34.269531 16.042969 Z M 34.269531 16.042969 "/>
<path style=" stroke:none;fill-rule:nonzero;fill:rgb(100%,0%,0%);fill-opacity:1;" d="M 11.667969 35 C 11.347656 35 11.03125 34.945312 10.734375 34.839844 L 2 31.929688 C 0.804688 31.53125 0 30.417969 0 29.167969 L 0 2.917969 C 0 1.308594 1.308594 0 2.917969 0 C 3.242188 0 3.554688 0.0546875 3.847656 0.160156 L 12.582031 3.070312 C 13.777344 3.46875 14.582031 4.578125 14.582031 5.832031 L 14.582031 32.082031 C 14.582031 33.691406 13.273438 35 11.667969 35 Z M 2.917969 1.457031 C 2.113281 1.457031 1.457031 2.113281 1.457031 2.917969 L 1.457031 29.167969 C 1.457031 29.789062 1.859375 30.34375 2.460938 30.546875 L 11.210938 33.464844 C 12.167969 33.800781 13.125 33.035156 13.125 32.082031 L 13.125 5.832031 C 13.125 5.207031 12.722656 4.652344 12.121094 4.457031 L 3.371094 1.539062 C 3.222656 1.484375 3.066406 1.457031 2.917969 1.457031 Z M 2.917969 1.457031 "/>
<path style=" stroke:none;fill-rule:nonzero;fill:rgb(100%,0%,0%);fill-opacity:1;" d="M 22.605469 11.667969 C 22.203125 11.667969 21.875 11.339844 21.875 10.9375 L 21.875 3.644531 C 21.875 2.441406 20.894531 1.457031 19.6875 1.457031 L 2.917969 1.457031 C 2.515625 1.457031 2.1875 1.132812 2.1875 0.730469 C 2.1875 0.328125 2.515625 0 2.917969 0 L 19.6875 0 C 21.699219 0 23.332031 1.636719 23.332031 3.644531 L 23.332031 10.9375 C 23.332031 11.339844 23.007812 11.667969 22.605469 11.667969 Z M 22.605469 11.667969 "/>
<path style=" stroke:none;fill-rule:nonzero;fill:rgb(100%,0%,0%);fill-opacity:1;" d="M 28.4375 21.875 C 28.25 21.875 28.0625 21.804688 27.921875 21.660156 C 27.636719 21.378906 27.636719 20.914062 27.921875 20.632812 L 33.238281 15.3125 L 27.921875 9.996094 C 27.636719 9.710938 27.636719 9.25 27.921875 8.964844 C 28.207031 8.679688 28.667969 8.679688 28.953125 8.964844 L 34.785156 14.800781 C 35.070312 15.082031 35.070312 15.546875 34.785156 15.832031 L 28.953125 21.664062 C 28.8125 21.804688 28.625 21.875 28.4375 21.875 Z M 28.4375 21.875 "/>
</g>
</svg>
