<?xml version="1.0" encoding="UTF-8"?>
<svg xmlns="http://www.w3.org/2000/svg" xmlns:xlink="http://www.w3.org/1999/xlink" width="35pt" height="35pt" viewBox="0 0 35 35" version="1.1">
<g id="surface1">
<path style=" stroke:none;fill-rule:nonzero;fill:rgb(48.627451%,72.54902%,34.901961%);fill-opacity:1;" d="M 22.714844 14.808594 L 26.417969 14.808594 C 26.976562 14.808594 27.429688 14.355469 27.429688 13.796875 C 27.429688 13.242188 26.976562 12.789062 26.417969 12.789062 L 24.734375 12.789062 L 24.734375 11.777344 C 24.734375 11.222656 24.285156 10.769531 23.726562 10.769531 C 23.167969 10.769531 22.714844 11.222656 22.714844 11.777344 L 22.714844 12.789062 C 21.230469 12.789062 20.023438 13.996094 20.023438 15.480469 C 20.023438 16.964844 21.230469 18.171875 22.714844 18.171875 L 24.734375 18.171875 C 25.105469 18.171875 25.410156 18.476562 25.410156 18.847656 C 25.410156 19.21875 25.105469 19.519531 24.734375 19.519531 L 21.035156 19.519531 C 20.476562 19.519531 20.023438 19.972656 20.023438 20.527344 C 20.023438 21.085938 20.476562 21.539062 21.035156 21.539062 L 22.714844 21.539062 L 22.714844 22.546875 C 22.714844 23.105469 23.167969 23.558594 23.726562 23.558594 C 24.285156 23.558594 24.734375 23.105469 24.734375 22.546875 L 24.734375 21.539062 C 26.21875 21.539062 27.429688 20.332031 27.429688 18.847656 C 27.429688 17.363281 26.21875 16.152344 24.734375 16.152344 L 22.714844 16.152344 C 22.34375 16.152344 22.042969 15.851562 22.042969 15.480469 C 22.042969 15.109375 22.34375 14.808594 22.714844 14.808594 Z M 22.714844 14.808594 "/>
<path style=" stroke:none;fill-rule:nonzero;fill:rgb(48.627451%,72.54902%,34.901961%);fill-opacity:1;" d="M 31.972656 5.382812 L 22.546875 5.382812 L 22.546875 3.027344 C 22.546875 1.359375 21.1875 0 19.519531 0 L 3.027344 0 C 1.359375 0 0 1.359375 0 3.027344 L 0 19.519531 C 0 21.1875 1.359375 22.546875 3.027344 22.546875 L 4.375 22.546875 L 4.375 26.921875 C 4.375 27.246094 4.535156 27.554688 4.792969 27.742188 C 5.113281 27.972656 5.546875 27.992188 5.886719 27.800781 L 12.453125 24.046875 L 12.453125 24.902344 C 12.453125 26.574219 13.8125 27.933594 15.480469 27.933594 L 19.925781 27.933594 L 29.113281 33.183594 C 29.453125 33.378906 29.886719 33.355469 30.207031 33.128906 C 30.464844 32.9375 30.625 32.628906 30.625 32.308594 L 30.625 27.933594 L 31.972656 27.933594 C 33.640625 27.933594 35 26.574219 35 24.902344 L 35 8.414062 C 35 6.742188 33.640625 5.382812 31.972656 5.382812 Z M 6.394531 25.183594 L 6.394531 21.539062 C 6.394531 20.980469 5.941406 20.527344 5.382812 20.527344 L 3.027344 20.527344 C 2.472656 20.527344 2.019531 20.074219 2.019531 19.519531 L 2.019531 3.027344 C 2.019531 2.472656 2.472656 2.019531 3.027344 2.019531 L 19.519531 2.019531 C 20.074219 2.019531 20.527344 2.472656 20.527344 3.027344 L 20.527344 5.382812 L 15.480469 5.382812 C 13.8125 5.382812 12.453125 6.742188 12.453125 8.414062 L 12.453125 21.722656 Z M 32.980469 24.902344 C 32.980469 25.460938 32.527344 25.914062 31.972656 25.914062 L 29.617188 25.914062 C 29.058594 25.914062 28.605469 26.367188 28.605469 26.921875 L 28.605469 30.566406 L 20.691406 26.046875 C 20.539062 25.960938 20.367188 25.914062 20.191406 25.914062 L 15.480469 25.914062 C 14.925781 25.914062 14.472656 25.460938 14.472656 24.902344 L 14.472656 8.414062 C 14.472656 7.855469 14.925781 7.402344 15.480469 7.402344 L 31.972656 7.402344 C 32.527344 7.402344 32.980469 7.855469 32.980469 8.414062 Z M 32.980469 24.902344 "/>
</g>
</svg>
