<?xml version="1.0" encoding="UTF-8"?>
<svg xmlns="http://www.w3.org/2000/svg" xmlns:xlink="http://www.w3.org/1999/xlink" width="40pt" height="40pt" viewBox="0 0 40 40" version="1.1">
<g id="surface1">
<path style=" stroke:none;fill-rule:nonzero;fill:rgb(39.215686%,59.607843%,96.470588%);fill-opacity:1;" d="M 27.5 9.375 L 24.605469 9.375 L 27.027344 6.949219 C 27.761719 6.21875 27.761719 5.03125 27.027344 4.300781 C 26.296875 3.566406 25.109375 3.566406 24.378906 4.300781 L 18.753906 9.925781 C 18.019531 10.65625 18.019531 11.84375 18.753906 12.574219 L 24.378906 18.199219 C 25.109375 18.933594 26.296875 18.933594 27.027344 18.199219 C 27.761719 17.46875 27.761719 16.28125 27.027344 15.550781 L 24.605469 13.125 L 27.5 13.125 C 31.296875 13.125 34.375 16.203125 34.375 20 C 34.375 23.796875 31.296875 26.875 27.5 26.875 C 26.464844 26.875 25.625 27.714844 25.625 28.75 C 25.625 29.785156 26.464844 30.625 27.5 30.625 C 33.359375 30.625 38.125 25.859375 38.125 20 C 38.125 14.140625 33.359375 9.375 27.5 9.375 Z M 27.5 9.375 "/>
<path style=" stroke:none;fill-rule:nonzero;fill:rgb(39.215686%,59.607843%,96.470588%);fill-opacity:1;" d="M 15.699219 21.800781 C 14.96875 21.066406 13.78125 21.066406 13.050781 21.800781 C 12.316406 22.53125 12.316406 23.71875 13.050781 24.449219 L 15.472656 26.875 L 12.5 26.875 C 8.703125 26.875 5.625 23.796875 5.625 20 C 5.625 16.203125 8.703125 13.125 12.5 13.125 C 13.535156 13.125 14.375 12.285156 14.375 11.25 C 14.375 10.214844 13.535156 9.375 12.5 9.375 C 6.640625 9.375 1.875 14.140625 1.875 20 C 1.875 25.859375 6.640625 30.625 12.5 30.625 L 15.472656 30.625 L 13.050781 33.050781 C 12.316406 33.78125 12.316406 34.96875 13.050781 35.699219 C 13.78125 36.433594 14.96875 36.433594 15.699219 35.699219 L 21.324219 30.074219 C 22.058594 29.34375 22.058594 28.15625 21.324219 27.425781 Z M 15.699219 21.800781 "/>
<path style=" stroke:none;fill-rule:nonzero;fill:rgb(1.568627%,26.666667%,71.764706%);fill-opacity:1;" d="M 27.5 31.25 C 26.121094 31.25 25 30.128906 25 28.75 C 25 27.367188 26.121094 26.25 27.5 26.25 C 30.953125 26.25 33.75 23.449219 33.75 20 C 33.75 16.546875 30.953125 13.75 27.5 13.75 L 26.113281 13.75 L 27.472656 15.105469 C 28.445312 16.082031 28.445312 17.664062 27.472656 18.640625 C 26.496094 19.617188 24.910156 19.617188 23.933594 18.640625 L 18.308594 13.015625 C 17.335938 12.039062 17.335938 10.457031 18.308594 9.480469 L 23.933594 3.855469 C 24.910156 2.878906 26.496094 2.878906 27.472656 3.855469 C 28.449219 4.832031 28.449219 6.414062 27.472656 7.390625 L 26.113281 8.75 L 27.5 8.75 C 33.703125 8.75 38.75 13.796875 38.75 20 C 38.75 26.203125 33.703125 31.25 27.5 31.25 Z M 24.605469 12.5 L 27.5 12.5 C 31.640625 12.5 35 15.855469 35 20 C 35 24.140625 31.640625 27.5 27.5 27.5 C 26.808594 27.5 26.25 28.058594 26.25 28.75 C 26.25 29.4375 26.808594 30 27.5 30 C 33.023438 30 37.5 25.523438 37.5 20 C 37.5 14.476562 33.023438 10 27.5 10 L 24.605469 10 C 24.351562 10 24.125 9.847656 24.027344 9.613281 C 23.929688 9.378906 23.984375 9.109375 24.164062 8.933594 L 26.585938 6.507812 C 26.90625 6.191406 27.03125 5.730469 26.917969 5.296875 C 26.800781 4.863281 26.460938 4.527344 26.03125 4.410156 C 25.597656 4.296875 25.132812 4.421875 24.820312 4.738281 L 19.195312 10.363281 C 18.707031 10.855469 18.707031 11.644531 19.195312 12.132812 L 24.820312 17.757812 C 25.132812 18.078125 25.597656 18.203125 26.03125 18.085938 C 26.460938 17.972656 26.800781 17.632812 26.917969 17.199219 C 27.03125 16.765625 26.90625 16.304688 26.585938 15.988281 L 24.164062 13.566406 C 23.984375 13.386719 23.929688 13.117188 24.027344 12.886719 C 24.125 12.652344 24.351562 12.5 24.605469 12.5 Z M 24.605469 12.5 "/>
<path style=" stroke:none;fill-rule:nonzero;fill:rgb(1.568627%,26.666667%,71.764706%);fill-opacity:1;" d="M 14.375 36.875 C 13.363281 36.875 12.453125 36.265625 12.066406 35.332031 C 11.679688 34.398438 11.890625 33.324219 12.605469 32.605469 L 13.964844 31.25 L 12.5 31.25 C 6.296875 31.25 1.25 26.203125 1.25 20 C 1.25 13.796875 6.296875 8.75 12.5 8.75 C 13.878906 8.75 15 9.871094 15 11.25 C 15 12.628906 13.878906 13.75 12.5 13.75 C 9.046875 13.75 6.25 16.546875 6.25 20 C 6.25 23.453125 9.046875 26.25 12.5 26.25 L 13.964844 26.25 L 12.605469 24.894531 C 11.628906 23.917969 11.628906 22.332031 12.605469 21.355469 C 13.582031 20.378906 15.167969 20.378906 16.144531 21.355469 L 21.769531 26.980469 C 22.742188 27.960938 22.742188 29.539062 21.769531 30.519531 L 16.144531 36.144531 C 15.675781 36.613281 15.039062 36.875 14.375 36.875 Z M 12.5 10 C 6.976562 10 2.5 14.476562 2.5 20 C 2.5 25.523438 6.976562 30 12.5 30 L 15.472656 30 C 15.726562 30 15.953125 30.152344 16.050781 30.386719 C 16.148438 30.621094 16.09375 30.886719 15.914062 31.066406 L 13.492188 33.492188 C 13.167969 33.804688 13.042969 34.269531 13.15625 34.703125 C 13.269531 35.140625 13.609375 35.480469 14.046875 35.59375 C 14.480469 35.707031 14.945312 35.582031 15.257812 35.257812 L 20.882812 29.632812 C 21.371094 29.144531 21.371094 28.355469 20.882812 27.867188 L 15.257812 22.242188 C 14.945312 21.921875 14.480469 21.792969 14.046875 21.910156 C 13.613281 22.023438 13.273438 22.363281 13.160156 22.796875 C 13.042969 23.230469 13.171875 23.695312 13.492188 24.007812 L 15.914062 26.433594 C 16.09375 26.613281 16.148438 26.878906 16.050781 27.113281 C 15.953125 27.347656 15.726562 27.5 15.472656 27.5 L 12.5 27.5 C 8.359375 27.5 5 24.140625 5 20 C 5 15.859375 8.359375 12.5 12.5 12.5 C 13.191406 12.5 13.75 11.941406 13.75 11.25 C 13.75 10.558594 13.191406 10 12.5 10 Z M 12.5 10 "/>
</g>
</svg>
