<?xml version="1.0" encoding="UTF-8"?>
<svg xmlns="http://www.w3.org/2000/svg" xmlns:xlink="http://www.w3.org/1999/xlink" width="35pt" height="35pt" viewBox="0 0 35 35" version="1.1">
<g id="surface1">
<path style=" stroke:none;fill-rule:nonzero;fill:rgb(33.333333%,79.607843%,58.431373%);fill-opacity:1;" d="M 18.597656 35 L 16.402344 35 C 14.625 35 13.179688 33.554688 13.179688 31.777344 L 13.179688 31.035156 C 12.425781 30.792969 11.691406 30.488281 10.984375 30.125 L 10.457031 30.652344 C 9.183594 31.929688 7.140625 31.890625 5.902344 30.648438 L 4.347656 29.097656 C 3.109375 27.859375 3.074219 25.816406 4.347656 24.539062 L 4.875 24.015625 C 4.511719 23.308594 4.207031 22.574219 3.964844 21.820312 L 3.222656 21.820312 C 1.445312 21.820312 0 20.375 0 18.597656 L 0 16.402344 C 0 14.625 1.445312 13.179688 3.222656 13.179688 L 3.964844 13.179688 C 4.207031 12.425781 4.511719 11.691406 4.875 10.984375 L 4.347656 10.460938 C 3.074219 9.183594 3.109375 7.140625 4.351562 5.902344 L 5.902344 4.347656 C 7.144531 3.105469 9.1875 3.074219 10.460938 4.351562 L 10.984375 4.875 C 11.691406 4.511719 12.425781 4.207031 13.179688 3.964844 L 13.179688 3.222656 C 13.179688 1.445312 14.625 0 16.402344 0 L 18.597656 0 C 20.375 0 21.820312 1.445312 21.820312 3.222656 L 21.820312 3.964844 C 22.574219 4.207031 23.308594 4.511719 24.015625 4.875 L 24.542969 4.347656 C 25.816406 3.070312 27.859375 3.109375 29.097656 4.351562 L 30.652344 5.902344 C 31.890625 7.140625 31.925781 9.183594 30.648438 10.460938 L 30.125 10.984375 C 30.488281 11.691406 30.792969 12.425781 31.035156 13.179688 L 31.777344 13.179688 C 33.554688 13.179688 35 14.625 35 16.402344 L 35 18.597656 C 35 20.375 33.554688 21.820312 31.777344 21.820312 L 31.035156 21.820312 C 30.792969 22.574219 30.488281 23.308594 30.125 24.015625 L 30.652344 24.542969 C 31.925781 25.816406 31.890625 27.859375 30.648438 29.097656 L 29.097656 30.652344 C 27.855469 31.894531 25.8125 31.925781 24.539062 30.652344 L 24.015625 30.125 C 23.308594 30.488281 22.574219 30.792969 21.820312 31.035156 L 21.820312 31.777344 C 21.820312 33.554688 20.375 35 18.597656 35 Z M 11.328125 27.96875 C 12.308594 28.550781 13.363281 28.988281 14.460938 29.269531 C 14.914062 29.386719 15.230469 29.796875 15.230469 30.265625 L 15.230469 31.777344 C 15.230469 32.421875 15.757812 32.949219 16.402344 32.949219 L 18.597656 32.949219 C 19.242188 32.949219 19.769531 32.421875 19.769531 31.777344 L 19.769531 30.265625 C 19.769531 29.796875 20.085938 29.386719 20.539062 29.269531 C 21.636719 28.988281 22.691406 28.550781 23.671875 27.96875 C 24.074219 27.730469 24.585938 27.796875 24.917969 28.128906 L 25.992188 29.199219 C 26.453125 29.664062 27.195312 29.652344 27.648438 29.199219 L 29.199219 27.648438 C 29.652344 27.199219 29.664062 26.457031 29.203125 25.992188 L 28.128906 24.917969 C 27.796875 24.585938 27.734375 24.074219 27.972656 23.671875 C 28.550781 22.691406 28.988281 21.636719 29.269531 20.539062 C 29.386719 20.085938 29.796875 19.769531 30.265625 19.769531 L 31.777344 19.769531 C 32.421875 19.769531 32.949219 19.246094 32.949219 18.597656 L 32.949219 16.402344 C 32.949219 15.757812 32.421875 15.230469 31.777344 15.230469 L 30.265625 15.230469 C 29.796875 15.230469 29.386719 14.914062 29.269531 14.460938 C 28.988281 13.363281 28.550781 12.308594 27.972656 11.328125 C 27.734375 10.925781 27.796875 10.414062 28.128906 10.082031 L 29.199219 9.007812 C 29.664062 8.546875 29.652344 7.804688 29.203125 7.351562 L 27.648438 5.800781 C 27.199219 5.347656 26.453125 5.335938 25.992188 5.800781 L 24.917969 6.871094 C 24.589844 7.203125 24.074219 7.269531 23.671875 7.03125 C 22.691406 6.449219 21.636719 6.011719 20.539062 5.730469 C 20.085938 5.613281 19.769531 5.203125 19.769531 4.734375 L 19.769531 3.222656 C 19.769531 2.578125 19.246094 2.050781 18.597656 2.050781 L 16.402344 2.050781 C 15.757812 2.050781 15.230469 2.578125 15.230469 3.222656 L 15.230469 4.734375 C 15.230469 5.203125 14.914062 5.613281 14.460938 5.730469 C 13.363281 6.011719 12.308594 6.449219 11.328125 7.03125 C 10.925781 7.269531 10.414062 7.203125 10.082031 6.871094 L 9.007812 5.800781 C 8.546875 5.335938 7.804688 5.347656 7.351562 5.800781 L 5.800781 7.351562 C 5.347656 7.800781 5.335938 8.542969 5.800781 9.007812 L 6.871094 10.082031 C 7.203125 10.414062 7.269531 10.925781 7.03125 11.328125 C 6.449219 12.308594 6.011719 13.363281 5.730469 14.460938 C 5.613281 14.914062 5.203125 15.230469 4.734375 15.230469 L 3.222656 15.230469 C 2.578125 15.230469 2.050781 15.757812 2.050781 16.402344 L 2.050781 18.597656 C 2.050781 19.242188 2.578125 19.769531 3.222656 19.769531 L 4.734375 19.769531 C 5.203125 19.769531 5.613281 20.085938 5.730469 20.539062 C 6.011719 21.636719 6.449219 22.691406 7.03125 23.671875 C 7.265625 24.074219 7.203125 24.585938 6.871094 24.917969 L 5.800781 25.992188 C 5.335938 26.453125 5.347656 27.195312 5.800781 27.648438 L 7.351562 29.199219 C 7.800781 29.652344 8.546875 29.664062 9.007812 29.199219 L 10.082031 28.128906 C 10.324219 27.882812 10.832031 27.675781 11.328125 27.96875 Z M 11.328125 27.96875 "/>
<path style=" stroke:none;fill-rule:nonzero;fill:rgb(33.333333%,79.607843%,58.431373%);fill-opacity:1;" d="M 17.5 25.117188 C 13.300781 25.117188 9.882812 21.699219 9.882812 17.5 C 9.882812 13.300781 13.300781 9.882812 17.5 9.882812 C 21.699219 9.882812 25.117188 13.300781 25.117188 17.5 C 25.117188 21.699219 21.699219 25.117188 17.5 25.117188 Z M 17.5 11.933594 C 14.433594 11.933594 11.9375 14.433594 11.9375 17.5 C 11.9375 20.566406 14.433594 23.0625 17.5 23.0625 C 20.566406 23.0625 23.0625 20.566406 23.0625 17.5 C 23.0625 14.433594 20.566406 11.933594 17.5 11.933594 Z M 17.5 11.933594 "/>
</g>
</svg>
