<?xml version="1.0" encoding="UTF-8"?>
<svg xmlns="http://www.w3.org/2000/svg" xmlns:xlink="http://www.w3.org/1999/xlink" width="50pt" height="50pt" viewBox="0 0 50 50" version="1.1">
<g id="surface1">
<path style=" stroke:none;fill-rule:nonzero;fill:rgb(67.45098%,80.784314%,100%);fill-opacity:1;" d="M 47.410156 44.726562 L 17.550781 44.726562 C 17.476562 44.726562 3.140625 44.667969 3.140625 44.59375 L 3.140625 10.945312 L 47.539062 10.945312 L 47.539062 44.59375 C 47.539062 44.667969 47.480469 44.726562 47.410156 44.726562 Z M 47.410156 44.726562 "/>
<path style=" stroke:none;fill-rule:nonzero;fill:rgb(45.098039%,73.72549%,100%);fill-opacity:1;" d="M 47.539062 10.945312 L 24.992188 10.945312 L 25 44.726562 L 47.410156 44.726562 C 47.480469 44.726562 47.539062 44.667969 47.539062 44.59375 Z M 47.539062 10.945312 "/>
<path style=" stroke:none;fill-rule:nonzero;fill:rgb(0%,25.882353%,60.784314%);fill-opacity:1;" d="M 3.140625 44.921875 L 3.140625 20.1875 C 3.140625 20.167969 3.15625 20.152344 3.175781 20.152344 L 20.339844 20.152344 L 20.3125 44.921875 Z M 3.140625 44.921875 "/>
<path style=" stroke:none;fill-rule:nonzero;fill:rgb(0%,12.941176%,35.294118%);fill-opacity:1;" d="M 14.492188 37.15625 C 13.683594 37.15625 13.027344 36.5 13.027344 35.691406 L 13.027344 34.226562 C 13.027344 33.414062 13.683594 32.757812 14.492188 32.757812 C 15.300781 32.757812 15.957031 33.414062 15.957031 34.226562 L 15.957031 35.691406 C 15.957031 36.5 15.300781 37.15625 14.492188 37.15625 Z M 14.492188 37.15625 "/>
<path style=" stroke:none;fill-rule:nonzero;fill:rgb(0%,58.431373%,100%);fill-opacity:1;" d="M 48.507812 50 L 1.472656 50 C 0.664062 50 0.00390625 49.492188 0.00390625 48.839844 L 0.00390625 46.539062 C 0.00390625 44.582031 1.972656 42.992188 4.394531 42.992188 L 45.570312 42.992188 C 47.992188 42.992188 49.960938 44.582031 49.960938 46.539062 L 49.960938 48.839844 C 49.960938 49.492188 49.316406 50 48.507812 50 Z M 48.507812 50 "/>
<path style=" stroke:none;fill-rule:nonzero;fill:rgb(0%,43.137255%,100%);fill-opacity:1;" d="M 45.578125 42.992188 L 24.992188 42.992188 L 24.992188 50 L 48.507812 50 C 49.316406 50 49.96875 49.492188 49.96875 48.839844 L 49.96875 46.539062 C 49.96875 44.582031 48 42.992188 45.578125 42.992188 Z M 45.578125 42.992188 "/>
<path style=" stroke:none;fill-rule:nonzero;fill:rgb(100%,36.078431%,36.078431%);fill-opacity:1;" d="M 43.828125 17.621094 C 41.945312 17.621094 40.253906 16.78125 39.121094 15.457031 C 37.988281 16.78125 36.296875 17.621094 34.414062 17.621094 C 32.53125 17.621094 30.839844 16.78125 29.707031 15.457031 C 28.574219 16.78125 26.882812 17.621094 25 17.621094 C 23.117188 17.621094 21.425781 16.78125 20.292969 15.457031 C 19.160156 16.78125 17.46875 17.621094 15.585938 17.621094 C 13.703125 17.621094 12.011719 16.78125 10.878906 15.457031 C 9.746094 16.78125 8.054688 17.621094 6.171875 17.621094 C 2.769531 17.621094 0 14.875 0 11.503906 L 0 9.269531 C 0 8.460938 0.65625 7.800781 1.464844 7.800781 L 48.535156 7.800781 C 49.34375 7.800781 50 8.460938 50 9.269531 L 50 11.503906 C 50 14.875 47.230469 17.621094 43.828125 17.621094 Z M 43.828125 17.621094 "/>
<path style=" stroke:none;fill-rule:nonzero;fill:rgb(100%,21.960784%,21.960784%);fill-opacity:1;" d="M 48.535156 7.800781 L 24.992188 7.800781 L 24.992188 17.621094 C 24.992188 17.621094 24.996094 17.621094 25 17.621094 C 26.882812 17.621094 28.574219 16.78125 29.707031 15.457031 C 30.839844 16.78125 32.53125 17.621094 34.414062 17.621094 C 36.296875 17.621094 37.988281 16.78125 39.121094 15.457031 C 40.253906 16.78125 41.945312 17.621094 43.828125 17.621094 C 47.230469 17.621094 50 14.875 50 11.503906 L 50 9.269531 C 50 8.460938 49.34375 7.800781 48.535156 7.800781 Z M 48.535156 7.800781 "/>
<path style=" stroke:none;fill-rule:nonzero;fill:rgb(100%,21.960784%,21.960784%);fill-opacity:1;" d="M 20.3125 7.800781 L 10.90625 7.800781 L 10.90625 15.488281 C 12.039062 16.792969 13.71875 17.621094 15.585938 17.621094 C 17.46875 17.621094 19.160156 16.78125 20.292969 15.457031 C 20.300781 15.464844 20.304688 15.46875 20.3125 15.476562 Z M 20.3125 7.800781 "/>
<path style=" stroke:none;fill-rule:nonzero;fill:rgb(88.627451%,0%,0%);fill-opacity:1;" d="M 39.160156 7.800781 L 29.753906 7.800781 L 29.753906 15.507812 C 30.886719 16.800781 32.554688 17.621094 34.414062 17.621094 C 36.296875 17.621094 37.988281 16.78125 39.121094 15.457031 C 39.132812 15.472656 39.148438 15.484375 39.160156 15.5 Z M 39.160156 7.800781 "/>
<path style=" stroke:none;fill-rule:nonzero;fill:rgb(100%,54.509804%,54.509804%);fill-opacity:1;" d="M 0.00390625 9.265625 C -0.0195312 8.984375 0.0390625 8.621094 0.179688 8.363281 L 4.339844 0.761719 C 4.597656 0.292969 5.089844 0 5.625 0 L 44.671875 0 C 45.222656 0 45.726562 0.308594 45.976562 0.800781 L 49.839844 8.402344 C 49.976562 8.675781 50.023438 8.976562 49.984375 9.265625 Z M 0.00390625 9.265625 "/>
<path style=" stroke:none;fill-rule:nonzero;fill:rgb(100%,36.078431%,36.078431%);fill-opacity:1;" d="M 45.976562 0.800781 C 45.726562 0.308594 45.222656 0 44.671875 0 L 24.992188 0 L 24.992188 9.265625 L 49.984375 9.265625 C 50.023438 8.976562 49.976562 8.675781 49.839844 8.402344 Z M 45.976562 0.800781 "/>
<path style=" stroke:none;fill-rule:nonzero;fill:rgb(50.196078%,25.882353%,19.215686%);fill-opacity:1;" d="M 30.917969 35.507812 C 29.765625 35.507812 28.773438 35.152344 28.089844 34.46875 C 27.148438 33.523438 26.824219 31.988281 27.207031 30.257812 C 27.558594 28.6875 28.433594 27.136719 29.679688 25.890625 C 30.925781 24.644531 32.476562 23.769531 34.046875 23.421875 C 35.777344 23.035156 37.3125 23.359375 38.257812 24.300781 C 39.199219 25.246094 39.523438 26.78125 39.136719 28.511719 C 38.789062 30.082031 37.914062 31.632812 36.667969 32.878906 C 35.421875 34.125 33.871094 35 32.300781 35.351562 C 31.824219 35.457031 31.359375 35.507812 30.917969 35.507812 Z M 30.917969 35.507812 "/>
</g>
</svg>
